<svg width="13" height="14" viewBox="0 0 13 14" fill="none" xmlns="http://www.w3.org/2000/svg">
<path d="M0.700195 2.40002C0.700195 1.84773 1.14791 1.40002 1.7002 1.40002H8.59997C10.8091 1.40002 12.6 3.19088 12.6 5.40002V10C12.6 12.2091 10.8091 14 8.59997 14H1.70019C1.14791 14 0.700195 13.5523 0.700195 13V2.40002Z" fill="white"/>
<path d="M0 2.40002C0 1.84773 0.447715 1.40002 1 1.40002H8.59976C10.8089 1.40002 12.5998 3.19088 12.5998 5.40002V9.30001C12.5998 11.5091 10.8089 13.3 8.59975 13.3H0.999999C0.447714 13.3 0 12.8523 0 12.3V2.40002Z" fill="black"/>
<path d="M0 1C0 0.447716 0.447715 0 1 0H8.59976C10.8089 0 12.5998 1.79086 12.5998 4V8.59998C12.5998 10.8091 10.8089 12.6 8.59975 12.6H0.999999C0.447714 12.6 0 12.1523 0 11.6V1Z" fill="white"/>
</svg>
