<svg width="18" height="18" viewBox="0 0 18 18" fill="none" xmlns="http://www.w3.org/2000/svg">
<path fill-rule="evenodd" clip-rule="evenodd" d="M3.75 0.9375C3.89918 0.9375 4.04226 0.996763 4.14775 1.10225C4.25324 1.20774 4.3125 1.35082 4.3125 1.5V2.31375L5.493 2.0775C6.83799 1.80883 8.23207 1.93703 9.5055 2.4465L9.65775 2.50725C10.7188 2.93158 11.8866 3.01084 12.9952 2.73375C13.2109 2.67983 13.436 2.67578 13.6534 2.72189C13.8708 2.768 14.0749 2.86307 14.2501 2.99986C14.4253 3.13666 14.567 3.31159 14.6644 3.51136C14.7619 3.71113 14.8125 3.93048 14.8125 4.15275V9.678C14.8125 10.419 14.3077 11.0655 13.5885 11.2455L13.428 11.2852C11.986 11.6456 10.4671 11.5425 9.087 10.9905C8.0163 10.5624 6.84425 10.4548 5.7135 10.6807L4.3125 10.9613V16.5C4.3125 16.6492 4.25324 16.7923 4.14775 16.8977C4.04226 17.0032 3.89918 17.0625 3.75 17.0625C3.60082 17.0625 3.45774 17.0032 3.35225 16.8977C3.24676 16.7923 3.1875 16.6492 3.1875 16.5V1.5C3.1875 1.35082 3.24676 1.20774 3.35225 1.10225C3.45774 0.996763 3.60082 0.9375 3.75 0.9375ZM4.3125 9.81375L5.493 9.5775C6.83799 9.30883 8.23207 9.43703 9.5055 9.9465C10.6658 10.4103 11.9427 10.4969 13.155 10.194L13.3162 10.1535C13.4223 10.1269 13.5164 10.0657 13.5836 9.97957C13.6509 9.89343 13.6874 9.78729 13.6875 9.678V4.15275C13.6875 4.10144 13.6759 4.0508 13.6534 4.00468C13.631 3.95855 13.5983 3.91815 13.5579 3.88656C13.5174 3.85496 13.4704 3.83299 13.4202 3.82232C13.37 3.81166 13.318 3.81257 13.2682 3.825C11.9302 4.15958 10.5207 4.06406 9.24 3.552L9.087 3.4905C8.0163 3.0624 6.84425 2.95479 5.7135 3.18075L4.3125 3.46125V9.81375Z" fill="white"/>
</svg>
