<svg width="16" height="16" viewBox="0 0 16 16" fill="none" xmlns="http://www.w3.org/2000/svg">
<path fill-rule="evenodd" clip-rule="evenodd" d="M8.66658 8.66667C9.37383 8.66667 10.0521 8.94762 10.5522 9.44771C11.0523 9.94781 11.3333 10.6261 11.3333 11.3333V12.6667C11.3333 12.8435 11.263 13.013 11.138 13.1381C11.013 13.2631 10.8434 13.3333 10.6666 13.3333C10.4898 13.3333 10.3202 13.2631 10.1952 13.1381C10.0702 13.013 9.99992 12.8435 9.99992 12.6667V11.3333C9.99992 10.9797 9.85944 10.6406 9.60939 10.3905C9.35935 10.1405 9.02021 10 8.66658 10H3.99992C3.6463 10 3.30716 10.1405 3.05711 10.3905C2.80706 10.6406 2.66659 10.9797 2.66659 11.3333V12.6667C2.66659 12.8435 2.59635 13.013 2.47132 13.1381C2.3463 13.2631 2.17673 13.3333 1.99992 13.3333C1.82311 13.3333 1.65354 13.2631 1.52851 13.1381C1.40349 13.013 1.33325 12.8435 1.33325 12.6667V11.3333C1.33325 10.6261 1.6142 9.94781 2.1143 9.44771C2.6144 8.94762 3.29267 8.66667 3.99992 8.66667H8.66658ZM12.6666 8.66667C13.197 8.66667 13.7057 8.87738 14.0808 9.25245C14.4559 9.62753 14.6666 10.1362 14.6666 10.6667V12C14.6666 12.1768 14.5963 12.3464 14.4713 12.4714C14.3463 12.5964 14.1767 12.6667 13.9999 12.6667C13.8231 12.6667 13.6535 12.5964 13.5285 12.4714C13.4035 12.3464 13.3333 12.1768 13.3333 12V10.6667C13.3333 10.4899 13.263 10.3203 13.138 10.1953C13.013 10.0702 12.8434 10 12.6666 10H11.7226C11.492 9.47179 11.1284 9.0124 10.6673 8.66667H12.6666ZM6.33325 2C7.1289 2 7.89196 2.31607 8.45457 2.87868C9.01718 3.44129 9.33325 4.20435 9.33325 5C9.33325 5.79565 9.01718 6.55871 8.45457 7.12132C7.89196 7.68393 7.1289 8 6.33325 8C5.5376 8 4.77454 7.68393 4.21193 7.12132C3.64932 6.55871 3.33325 5.79565 3.33325 5C3.33325 4.20435 3.64932 3.44129 4.21193 2.87868C4.77454 2.31607 5.5376 2 6.33325 2ZM11.9999 4C12.5304 4 13.0391 4.21071 13.4141 4.58579C13.7892 4.96086 13.9999 5.46957 13.9999 6C13.9999 6.53043 13.7892 7.03914 13.4141 7.41421C13.0391 7.78929 12.5304 8 11.9999 8C11.4695 8 10.9608 7.78929 10.5857 7.41421C10.2106 7.03914 9.99992 6.53043 9.99992 6C9.99992 5.46957 10.2106 4.96086 10.5857 4.58579C10.9608 4.21071 11.4695 4 11.9999 4ZM6.33325 3.33333C5.89122 3.33333 5.4673 3.50893 5.15474 3.82149C4.84218 4.13405 4.66659 4.55797 4.66658 5C4.66659 5.44203 4.84218 5.86595 5.15474 6.17851C5.4673 6.49107 5.89122 6.66667 6.33325 6.66667C6.77528 6.66667 7.1992 6.49107 7.51176 6.17851C7.82432 5.86595 7.99992 5.44203 7.99992 5C7.99992 4.55797 7.82432 4.13405 7.51176 3.82149C7.1992 3.50893 6.77528 3.33333 6.33325 3.33333ZM11.9999 5.33333C11.8231 5.33333 11.6535 5.40357 11.5285 5.5286C11.4035 5.65362 11.3333 5.82319 11.3333 6C11.3333 6.17681 11.4035 6.34638 11.5285 6.4714C11.6535 6.59643 11.8231 6.66667 11.9999 6.66667C12.1767 6.66667 12.3463 6.59643 12.4713 6.4714C12.5963 6.34638 12.6666 6.17681 12.6666 6C12.6666 5.82319 12.5963 5.65362 12.4713 5.5286C12.3463 5.40357 12.1767 5.33333 11.9999 5.33333Z" fill="white"/>
</svg>
