<svg width="16" height="16" viewBox="0 0 16 16" fill="none" xmlns="http://www.w3.org/2000/svg">
<path d="M13 8C13.0005 7.19545 12.8048 6.40291 12.43 5.691L11.6825 6.439C11.8926 6.93258 12.0006 7.46357 12 8H13ZM11.707 5L11 4.293L8.64251 6.65C8.44213 6.55294 8.22265 6.5017 8.00001 6.5C7.70333 6.5 7.41332 6.58797 7.16665 6.7528C6.91998 6.91762 6.72772 7.15189 6.61419 7.42597C6.50065 7.70006 6.47095 8.00166 6.52883 8.29264C6.5867 8.58361 6.72957 8.85088 6.93934 9.06066C7.14912 9.27044 7.4164 9.4133 7.70737 9.47118C7.99834 9.52906 8.29994 9.49935 8.57403 9.38582C8.84812 9.27229 9.08239 9.08003 9.24721 8.83335C9.41203 8.58668 9.50001 8.29667 9.50001 8C9.49831 7.77736 9.44707 7.55788 9.35001 7.3575L11.707 5ZM8.00001 8.5C7.90111 8.5 7.80444 8.47068 7.72222 8.41574C7.64 8.36079 7.57591 8.2827 7.53807 8.19134C7.50022 8.09998 7.49032 7.99945 7.50961 7.90245C7.52891 7.80546 7.57653 7.71637 7.64645 7.64645C7.71638 7.57652 7.80547 7.5289 7.90246 7.50961C7.99945 7.49031 8.09998 7.50022 8.19135 7.53806C8.28271 7.5759 8.3608 7.63999 8.41574 7.72221C8.47068 7.80444 8.50001 7.90111 8.50001 8C8.50001 8.13261 8.44733 8.25979 8.35356 8.35355C8.25979 8.44732 8.13261 8.5 8.00001 8.5ZM8.00001 4C8.53636 4.00011 9.06722 4.10808 9.56101 4.3175L10.309 3.5695C9.54747 3.17078 8.6959 2.97541 7.83673 3.00231C6.97755 3.02922 6.13987 3.27748 5.40478 3.72307C4.66969 4.16866 4.06208 4.79649 3.64079 5.54577C3.21949 6.29505 2.99878 7.1404 3.00001 8H4.00001C4.00133 6.93954 4.42318 5.92289 5.17304 5.17303C5.9229 4.42318 6.93955 4.00132 8.00001 4Z" fill="white"/>
<path d="M8 15C6.61553 15 5.26216 14.5895 4.11101 13.8203C2.95987 13.0511 2.06266 11.9579 1.53285 10.6788C1.00303 9.3997 0.86441 7.99224 1.13451 6.63437C1.4046 5.2765 2.07129 4.02922 3.05026 3.05025C4.02922 2.07128 5.2765 1.4046 6.63437 1.1345C7.99224 0.864406 9.39971 1.00303 10.6788 1.53284C11.9579 2.06266 13.0511 2.95986 13.8203 4.11101C14.5895 5.26215 15 6.61553 15 8C14.9979 9.85587 14.2597 11.6351 12.9474 12.9474C11.6351 14.2597 9.85587 14.9979 8 15ZM8 2C6.81332 2 5.65328 2.35189 4.66658 3.01118C3.67989 3.67047 2.91085 4.60754 2.45673 5.7039C2.0026 6.80026 1.88378 8.00666 2.11529 9.17054C2.3468 10.3344 2.91825 11.4035 3.75736 12.2426C4.59648 13.0818 5.66558 13.6532 6.82946 13.8847C7.99335 14.1162 9.19975 13.9974 10.2961 13.5433C11.3925 13.0892 12.3295 12.3201 12.9888 11.3334C13.6481 10.3467 14 9.18669 14 8C13.9982 6.40927 13.3654 4.88422 12.2406 3.7594C11.1158 2.63459 9.59073 2.00185 8 2Z" fill="white"/>
</svg>
